<?xml version="1.0" standalone="no"?>
<!DOCTYPE svg PUBLIC "-//W3C//DTD SVG 20010904//EN"
 "http://www.w3.org/TR/2001/REC-SVG-20010904/DTD/svg10.dtd">
<svg version="1.0" xmlns="http://www.w3.org/2000/svg"
 width="512.000000pt" height="512.000000pt" viewBox="0 0 512.000000 512.000000"
 preserveAspectRatio="xMidYMid meet">

<g transform="translate(0.000000,512.000000) scale(0.100000,-0.100000)"
fill="#000000" stroke="none">
<path d="M2445 2724 c-120 -18 -173 -29 -265 -60 -356 -119 -630 -393 -750
-753 -17 -49 -30 -99 -30 -111 0 -31 117 -167 215 -250 273 -231 594 -350 943
-350 354 0 673 118 947 350 98 83 215 219 215 250 0 34 -55 191 -96 272 -162
323 -455 549 -813 629 -83 18 -303 32 -366 23z"/>
</g>
</svg>
